<svg xmlns="http://www.w3.org/2000/svg" xmlns:xlink="http://www.w3.org/1999/xlink" version="1.1" x="0px" y="0px" viewBox="0 0 100 125" style="enable-background:new 0 0 100 100;" xml:space="preserve"><path d="M98.3,40.8c-0.1-0.5-0.5-1-1-1.1l-8.7-2.4c-0.6-2-1.5-3.9-2.3-5.6l4.4-7.8c0.3-0.5,0.2-1.1-0.1-1.5c-4.3-5.7-7.4-8.7-13-13  c-0.4-0.3-1-0.4-1.5-0.1l-7.8,4.4c-1.8-0.9-3.7-1.7-5.6-2.3l-2.4-8.6c-0.1-0.5-0.6-0.9-1.1-1c-7-0.9-11.4-0.9-18.4,0  c-0.5,0.1-1,0.5-1.1,1l-2.4,8.6c-1.9,0.6-3.8,1.4-5.6,2.3l-7.8-4.4C23.4,9,22.8,9,22.4,9.3c-5.6,4.2-8.8,7.5-13,13  c-0.3,0.4-0.4,1-0.1,1.5l4.4,7.8c-0.9,1.9-1.7,3.7-2.3,5.6l-8.6,2.4c-0.5,0.1-0.9,0.6-1,1.1c-1,7.2-1,11.2,0,18.4  c0.1,0.5,0.5,1,1,1.1l8.6,2.4c0.6,2,1.4,3.8,2.3,5.6l-4.4,7.8c-0.3,0.5-0.2,1,0.1,1.5c4.2,5.5,7.5,8.8,13,13c0.4,0.3,1,0.4,1.5,0.1  l7.8-4.4c1.9,0.9,3.7,1.7,5.6,2.3l2.4,8.6c0.1,0.5,0.6,0.9,1.1,1c3.6,0.5,6.4,0.7,9.2,0.7c2.8,0,5.6-0.2,9.2-0.7  c0.5-0.1,1-0.5,1.1-1l2.4-8.6c1.9-0.6,3.8-1.4,5.6-2.3l7.8,4.4c0.5,0.3,1.1,0.2,1.5-0.1c5.7-4.3,8.7-7.4,13-13  c0.3-0.4,0.4-1,0.1-1.5l-4.4-7.8c0.9-1.8,1.7-3.7,2.3-5.6l8.7-2.4c0.5-0.1,0.9-0.6,1-1.1C99.3,52,99.3,48,98.3,40.8z M95.7,58  l-8.5,2.4c-0.4,0.1-0.8,0.5-0.9,0.9c-0.7,2.3-1.6,4.5-2.7,6.5c-0.2,0.4-0.2,0.9,0,1.3l4.4,7.7c-3.7,4.8-6.5,7.5-11.3,11.3L69,83.6  c-0.4-0.2-0.9-0.2-1.3,0c-2.1,1.1-4.3,2-6.5,2.7c-0.4,0.1-0.8,0.5-0.9,0.9L58,95.7c-6.2,0.8-9.8,0.8-15.9,0l-2.4-8.5  c-0.1-0.4-0.5-0.8-0.9-0.9c-2.2-0.7-4.3-1.6-6.5-2.7c-0.4-0.2-0.9-0.2-1.3,0L23.3,88c-4.7-3.7-7.6-6.6-11.3-11.3l4.3-7.7  c0.2-0.4,0.2-0.9,0-1.3c-1.1-2-2-4.2-2.7-6.5c-0.1-0.4-0.5-0.8-0.9-0.9L4.3,58c-0.8-6.2-0.8-9.8,0-15.9l8.5-2.4  c0.4-0.1,0.8-0.5,0.9-0.9c0.7-2.2,1.6-4.4,2.7-6.5c0.2-0.4,0.2-0.9,0-1.3L12,23.3c3.6-4.6,6.6-7.6,11.3-11.3l7.7,4.3  c0.4,0.2,0.9,0.2,1.3,0c2.1-1.1,4.3-2,6.5-2.7c0.4-0.1,0.8-0.5,0.9-0.9L42,4.2c5.9-0.7,10-0.7,15.9,0l2.3,8.5  c0.1,0.4,0.5,0.8,0.9,0.9c2.2,0.7,4.4,1.6,6.5,2.7c0.4,0.2,0.9,0.2,1.3,0l7.7-4.3c4.8,3.7,7.5,6.5,11.3,11.3l-4.4,7.7  c-0.2,0.4-0.2,0.9,0,1.3c1,1.9,2,4.2,2.7,6.5c0.1,0.4,0.5,0.8,0.9,0.9l8.5,2.4C96.5,48.2,96.5,51.8,95.7,58z M50,20  c-16.5,0-30,13.4-30,30c0,16.5,13.5,30,30,30s30-13.5,30-30C80,33.5,66.5,20,50,20z M50,77.3C34.9,77.3,22.7,65,22.7,50  c0-15,12.2-27.3,27.3-27.3S77.3,34.9,77.3,50C77.3,65,65,77.3,50,77.3z M50,14.9c-19.4,0-35.1,15.7-35.1,35.1  c0,19.4,15.7,35.1,35.1,35.1c19.4,0,35.1-15.8,35.1-35.1C85.1,30.6,69.4,14.9,50,14.9z M50,82.4c-17.9,0-32.4-14.5-32.4-32.4  c0-17.9,14.5-32.4,32.4-32.4c17.9,0,32.4,14.5,32.4,32.4C82.4,67.9,67.9,82.4,50,82.4z M52.7,38.1h-1.4v-4.6c0-0.7-0.6-1.3-1.3-1.3  s-1.3,0.6-1.3,1.3v4.6h-1.4c-0.7,0-1.3,0.6-1.3,1.3v12.1c0,0.7,0.6,1.3,1.3,1.3h1.4v13.6c0,0.7,0.6,1.3,1.3,1.3s1.3-0.6,1.3-1.3  V52.9h1.4c0.7,0,1.3-0.6,1.3-1.3V39.4C54.1,38.7,53.5,38.1,52.7,38.1z M51.4,50.2h-2.8v-9.4h2.8V50.2z M39.8,42.6h-1.4v-9.1  c0-0.7-0.6-1.3-1.3-1.3s-1.3,0.6-1.3,1.3v9.1h-1.4c-0.7,0-1.3,0.6-1.3,1.3v12.1c0,0.7,0.6,1.3,1.3,1.3h1.4v9.1  c0,0.7,0.6,1.3,1.3,1.3s1.3-0.6,1.3-1.3v-9.1h1.4c0.7,0,1.3-0.6,1.3-1.3V43.9C41.2,43.2,40.6,42.6,39.8,42.6z M38.5,54.7h-2.8v-9.4  h2.8V54.7z M65.7,47.1h-1.4V33.4c0-0.7-0.6-1.3-1.3-1.3s-1.3,0.6-1.3,1.3v13.6h-1.4c-0.7,0-1.3,0.6-1.3,1.3v12.1  c0,0.7,0.6,1.3,1.3,1.3h1.4v4.6c0,0.7,0.6,1.3,1.3,1.3s1.3-0.6,1.3-1.3v-4.6h1.4c0.7,0,1.3-0.6,1.3-1.3V48.4  C67,47.7,66.4,47.1,65.7,47.1z M64.3,59.2h-2.8v-9.4h2.8V59.2z"/><text x="0" y="115" fill="#000000" font-size="5px" font-weight="bold" font-family="'Helvetica Neue', Helvetica, Arial-Unicode, Arial, Sans-serif">Created by okta</text><text x="0" y="120" fill="#000000" font-size="5px" font-weight="bold" font-family="'Helvetica Neue', Helvetica, Arial-Unicode, Arial, Sans-serif">from the Noun Project</text></svg>