<svg xmlns="http://www.w3.org/2000/svg" xmlns:xlink="http://www.w3.org/1999/xlink" version="1.1" x="0px" y="0px" viewBox="0 0 96 120" style="enable-background:new 0 0 96 96;" xml:space="preserve"><style type="text/css">
	.st0{fill-rule:evenodd;clip-rule:evenodd;}
</style><path d="M33.797,20.57c0-0.808,0.655-1.463,1.463-1.463h25.195c0.808,0,1.463,0.655,1.463,1.463s-0.655,1.463-1.463,1.463H35.26  C34.452,22.033,33.797,21.378,33.797,20.57z M35.26,15.019h17.209c0.808,0,1.463-0.655,1.463-1.463s-0.655-1.463-1.463-1.463H35.26  c-0.808,0-1.463,0.655-1.463,1.463S34.452,15.019,35.26,15.019z M35.26,33.703h25.195c0.808,0,1.463-0.655,1.463-1.463  c0-0.808-0.655-1.463-1.463-1.463H35.26c-0.808,0-1.463,0.655-1.463,1.463C33.797,33.047,34.452,33.703,35.26,33.703z M35.26,40.717  h25.195c0.808,0,1.463-0.655,1.463-1.463c0-0.808-0.655-1.463-1.463-1.463H35.26c-0.808,0-1.463,0.655-1.463,1.463  C33.797,40.062,34.452,40.717,35.26,40.717z M15.519,20.956V13.17c0-1.367,1.112-2.48,2.48-2.48h7.786c1.367,0,2.48,1.112,2.48,2.48  v7.786c0,1.367-1.112,2.48-2.48,2.48h-7.786C16.631,23.436,15.519,22.324,15.519,20.956z M18.445,20.509h6.892v-6.893h-6.892V20.509  z M15.519,39.64v-7.786c0-1.367,1.112-2.48,2.48-2.48h7.786c1.367,0,2.48,1.112,2.48,2.48v7.786c0,1.367-1.112,2.48-2.48,2.48  h-7.786C16.631,42.119,15.519,41.007,15.519,39.64z M18.445,39.193h6.892V32.3h-6.892V39.193z M53.794,58.201  c0.472-0.298,0.733-0.838,0.674-1.392l-0.494-4.632l4.081,1.434c0.566,0.198,1.195,0.032,1.588-0.419l3.823-4.388l-0.102,2.273  c-0.036,0.807,0.589,1.491,1.397,1.527c0.022,0.001,0.044,0.001,0.066,0.001c0.778,0,1.426-0.613,1.461-1.398l0.289-6.459  c0.02-0.438-0.158-0.862-0.485-1.155c-0.327-0.293-0.767-0.423-1.201-0.356l-6.389,0.992c-0.799,0.124-1.345,0.872-1.221,1.671  c0.124,0.799,0.872,1.345,1.671,1.221l2.428-0.377l-3.29,3.776l-5.331-1.873c-0.474-0.166-1-0.078-1.393,0.233  c-0.394,0.312-0.6,0.803-0.547,1.303l0.424,3.976l-3.496-2.146c-0.434-0.267-0.975-0.288-1.429-0.057  c-0.454,0.231-0.755,0.681-0.795,1.189l-0.501,6.357l-5.689-6.478c-0.352-0.4-0.893-0.578-1.414-0.463  c-0.521,0.114-0.938,0.503-1.089,1.014l-3.876,13.107l-5.491-4.042c-0.39-0.287-0.897-0.363-1.354-0.202  c-0.457,0.161-0.805,0.538-0.928,1.006l-1.658,6.271l-3.131-2.676c-0.335-0.286-0.782-0.407-1.215-0.327  c-0.434,0.08-0.808,0.351-1.02,0.737L11.611,79.42c-0.388,0.709-0.127,1.598,0.582,1.986c0.223,0.122,0.463,0.18,0.701,0.18  c0.518,0,1.019-0.275,1.285-0.762l5.679-10.39l3.531,3.018c0.382,0.327,0.906,0.435,1.387,0.284c0.48-0.15,0.85-0.536,0.979-1.023  l1.703-6.443l5.438,4.003c0.384,0.283,0.882,0.36,1.334,0.209c0.452-0.152,0.802-0.515,0.937-0.972l3.715-12.563l6.225,7.087  c0.388,0.442,1.004,0.608,1.561,0.423c0.558-0.186,0.951-0.687,0.997-1.273l0.586-7.427l3.996,2.453  C52.722,58.502,53.322,58.499,53.794,58.201z M90.863,73.336c0,11.043-8.984,20.026-20.026,20.026c-4.811,0-9.23-1.705-12.687-4.543  H8.279c-1.732,0-3.142-1.409-3.142-3.142V5.779c0-1.732,1.409-3.142,3.142-3.142h51.455c0.852,0,1.62,0.318,2.222,0.921l9.424,9.424  c0.602,0.602,0.92,1.37,0.92,2.222v38.16C82.662,54.116,90.863,62.786,90.863,73.336z M61.892,7.634v5.411h5.411L61.892,7.634z   M8.279,85.893h46.969c-2.774-3.437-4.438-7.806-4.438-12.557c0-10.55,8.201-19.221,18.563-19.973V15.972h-8.105  c-1.27,0-2.303-1.033-2.303-2.302V5.564H8.279c-0.117,0-0.215,0.099-0.215,0.215v79.899C8.064,85.794,8.162,85.893,8.279,85.893z   M87.936,73.336c0-9.429-7.671-17.1-17.1-17.1s-17.1,7.671-17.1,17.1s7.671,17.1,17.1,17.1S87.936,82.765,87.936,73.336z   M86.718,73.336c0,8.757-7.124,15.881-15.881,15.881s-15.881-7.124-15.881-15.881s7.124-15.881,15.881-15.881  S86.718,64.579,86.718,73.336z M83.791,73.336c0-7.143-5.811-12.955-12.955-12.955c-7.143,0-12.955,5.811-12.955,12.955  c0,7.143,5.811,12.955,12.955,12.955C77.98,86.291,83.791,80.479,83.791,73.336z M77.767,75.648L72.3,72.491V64.77  c0-0.808-0.655-1.463-1.463-1.463s-1.463,0.655-1.463,1.463v8.566c0,0.523,0.279,1.006,0.732,1.267l6.199,3.579  c0.23,0.133,0.482,0.196,0.73,0.196c0.506,0,0.998-0.262,1.269-0.732C78.707,76.947,78.467,76.052,77.767,75.648z"/><text x="0" y="111" fill="#000000" font-size="5px" font-weight="bold" font-family="'Helvetica Neue', Helvetica, Arial-Unicode, Arial, Sans-serif">Created by Eko Purnomo</text><text x="0" y="116" fill="#000000" font-size="5px" font-weight="bold" font-family="'Helvetica Neue', Helvetica, Arial-Unicode, Arial, Sans-serif">from the Noun Project</text></svg>