<svg xmlns="http://www.w3.org/2000/svg" xmlns:xlink="http://www.w3.org/1999/xlink" version="1.1" x="0px" y="0px" viewBox="0 0 100 125" style="enable-background:new 0 0 100 100;" xml:space="preserve"><path d="M73.7,28.7H38.5c-3-1.4-6.4-2.2-10-2.2C15.5,26.4,5,37,5,50s10.5,23.6,23.6,23.6c3.6,0,7-0.8,10-2.2h35.1  C85.4,71.3,95,61.8,95,50C95,38.2,85.4,28.7,73.7,28.7z M73.7,68.4H43.2c5.4-4.3,8.9-11,8.9-18.4s-3.5-14.1-8.9-18.4h30.5  c10.2,0,18.4,8.3,18.4,18.4C92.1,60.2,83.8,68.4,73.7,68.4z"/><text x="0" y="115" fill="#000000" font-size="5px" font-weight="bold" font-family="'Helvetica Neue', Helvetica, Arial-Unicode, Arial, Sans-serif">Created by CAMB</text><text x="0" y="120" fill="#000000" font-size="5px" font-weight="bold" font-family="'Helvetica Neue', Helvetica, Arial-Unicode, Arial, Sans-serif">from the Noun Project</text></svg>